<?xml version="1.0" encoding="UTF-8"?>
<svg id="Camada_1" data-name="Camada 1" xmlns="http://www.w3.org/2000/svg" viewBox="0 0 48 48">
  <defs>
    <style>
      .cls-1 {
        fill: #fff;
      }

      .cls-2 {
        fill: #112856;
      }
    </style>
  </defs>
  <rect class="cls-1" x=".06" y=".06" width="47.89" height="47.89" rx="3.48" ry="3.48"/>
  <g>
    <g>
      <circle class="cls-2" cx="33.98" cy="34.01" r="3.34"/>
      <circle class="cls-2" cx="15.32" cy="34.01" r="3.34"/>
    </g>
    <path class="cls-2" d="M40.75,23.42l-1.22-2.16c-.23-.41-.45-.81-.68-1.22l-1.04-1.85c-.38-.67-.75-1.3-1.35-1.8-.28-.21-.61-.39-.98-.39h-4.81c-.09-1.51.09-2.95-.07-4.34-.07-.59-.69-.93-1.19-1.02l-21.51.02c-.62,0-1.22.6-1.22,1.21v20.14c.02.84.67,1.33,1.47,1.33h2.52c.26-1.67,1.34-3.09,2.91-3.73,1.51-.61,3.18-.4,4.48.54.77.55,1.47,1.45,1.75,2.37.08.27.09.54.22.81h9.28s.23-.83.23-.83c.65-2.33,3.46-3.92,6.13-2.92,1.6.6,2.71,2.02,3,3.74h1.75c.54-.29.93-.72.93-1.34v-6.49c0-.75-.22-1.44-.58-2.07ZM19.54,16.29h-3.36v9.8h-3.5v-9.8h-3.32v-2.79h10.18v2.79ZM28.25,26.1h-7.41v-12.59h3.5v9.91h3.91v2.68ZM38.86,25.32h-6.87s0-6.63,0-6.63h3.28c.3.11.53.31.64.61l2.57,4.78c.14.26.89,1.25.38,1.25Z"/>
  </g>
</svg>