<svg width="30" height="31" viewBox="0 0 30 31" fill="none" xmlns="http://www.w3.org/2000/svg">
  <rect y="0.140305" width="30" height="30" rx="9.38806" fill="url(#paint0_linear_57_39)"/>
  <path d="M8 21.3117V13.0832C8 12.7936 8.06212 12.5194 8.18637 12.2603C8.31062 12.0013 8.48183 11.7879 8.7 11.6203L13.95 7.50602C14.2562 7.26221 14.6062 7.1403 15 7.1403C15.3937 7.1403 15.7437 7.26221 16.05 7.50602L21.3 11.6203C21.5187 11.7879 21.6902 12.0013 21.8145 12.2603C21.9387 12.5194 22.0006 12.7936 22 13.0832V21.3117C22 21.8146 21.8285 22.2452 21.4855 22.6036C21.1425 22.962 20.7307 23.1409 20.25 23.1403H17.625C17.3771 23.1403 17.1694 23.0525 17.002 22.877C16.8346 22.7014 16.7506 22.4845 16.75 22.226V17.6546C16.75 17.3955 16.666 17.1786 16.498 17.0036C16.33 16.8287 16.1223 16.7409 15.875 16.7403H14.125C13.8771 16.7403 13.6694 16.8281 13.502 17.0036C13.3346 17.1792 13.2506 17.3962 13.25 17.6546V22.226C13.25 22.4851 13.166 22.7024 12.998 22.8779C12.83 23.0534 12.6223 23.1409 12.375 23.1403H9.75C9.26875 23.1403 8.85692 22.9614 8.5145 22.6036C8.17208 22.2458 8.00058 21.8152 8 21.3117Z" fill="black"/>
  <defs>
  <linearGradient id="paint0_linear_57_39" x1="24.7585" y1="8.77445" x2="3.29064" y2="15.2712" gradientUnits="userSpaceOnUse">
  <stop stop-color="#028AC7"/>
  <stop offset="0.5" stop-color="#3968D7"/>
  <stop offset="1" stop-color="#6F45E6"/>
  </linearGradient>
  </defs>
</svg>