<svg width="29" height="30" viewBox="0 0 29 30" fill="none" xmlns="http://www.w3.org/2000/svg">
<path d="M19.9778 0.911133C24.6906 0.911142 28.5109 4.73157 28.511 9.44434V20.8223C28.511 25.5351 24.6906 29.3555 19.9778 29.3555H8.59985C3.88709 29.3554 0.0666617 25.535 0.0666504 20.8223V9.44434C0.0667184 4.73161 3.88713 0.911203 8.59985 0.911133H19.9778Z" fill="white"/>
<path d="M19.9778 0.911133C24.6906 0.911142 28.5109 4.73157 28.511 9.44434V20.8223C28.511 25.5351 24.6906 29.3555 19.9778 29.3555H8.59985C3.88709 29.3554 0.0666617 25.535 0.0666504 20.8223V9.44434C0.0667184 4.73161 3.88713 0.911203 8.59985 0.911133H19.9778Z" stroke="#E2E8F0"/>
<path d="M22.178 25.0889H6.38892V5.17773H22.178V25.0889Z" stroke="#E2E8F0"/>
<path d="M6.84346 11.6247V10.002H14.4889V11.6247H11.6389V19.3111H9.69346V11.6247H6.84346ZM15.748 19.3111V10.002H17.7162V17.6884H21.7071V19.3111H15.748Z" fill="#2563EB"/>
</svg>
